<svg width="32" height="32" viewBox="0 0 32 32" fill="none" xmlns="http://www.w3.org/2000/svg">
<path fill-rule="evenodd" clip-rule="evenodd" d="M21.9967 6.70661C21.9964 6.77075 21.9945 6.83452 21.9912 6.8979C23.5494 7.44453 24.6667 8.92848 24.6667 10.6734V12.0067H26V17.34H24.6667V21.34C24.6667 23.084 23.5506 24.5673 21.9938 25.1146C21.9979 25.1892 22 25.2644 22 25.34C22 27.5492 20.2091 29.34 18 29.34H12.6667C10.4575 29.34 8.66667 27.5492 8.66667 25.34C8.66667 25.2644 8.66877 25.1892 8.67291 25.1146C7.11606 24.5673 6 23.084 6 21.34V10.6734C6 8.93033 7.1149 7.44767 8.67049 6.89964C8.66543 6.81387 8.66307 6.72738 8.6635 6.64025C8.6745 4.43114 10.4743 2.64921 12.6834 2.66021L18.0166 2.68675C20.2257 2.69775 22.0077 4.4975 21.9967 6.70661ZM11.3302 6.67338H19.33C19.3229 5.94616 18.7331 5.35702 18.0034 5.35339L12.6701 5.32684C11.9337 5.32318 11.3338 5.91715 11.3301 6.65352L11.3302 6.67338ZM20.9398 9.36805L15.3128 9.34004H10C9.26362 9.34004 8.66667 9.937 8.66667 10.6734V21.34C8.66667 22.0758 9.26261 22.6724 9.99814 22.6734H20.6685C21.4041 22.6724 22 22.0758 22 21.34V10.6734C22 10.0306 21.5452 9.49409 20.9398 9.36805ZM11.3333 25.34C11.3333 26.0764 11.9303 26.6734 12.6667 26.6734H18C18.7364 26.6734 19.3333 26.0764 19.3333 25.34H11.3333Z" fill="white"/>
</svg>
