<svg width="32" height="32" viewBox="0 0 32 32" fill="none" xmlns="http://www.w3.org/2000/svg">
<path fill-rule="evenodd" clip-rule="evenodd" d="M28.9656 7.42467C28.4188 6.85844 27.5324 6.85845 26.9857 7.42467L19.4761 15.2018H3V18.1016H3.01179C3.31589 25.8307 9.46228 32 17 32C24.5377 32 30.6841 25.8307 30.9882 18.1016H31V15.2018H23.4359L28.9656 9.47513C29.5123 8.90891 29.5123 7.99089 28.9656 7.42467ZM20.0466 18.1016C20.0529 18.1017 20.0591 18.1017 20.0654 18.1016H28.1852C27.8835 24.2285 22.9911 29.1002 17 29.1002C11.0089 29.1002 6.11652 24.2285 5.81476 18.1016H20.0466Z" fill="white"/>
</svg>
