<svg width="32" height="32" viewBox="0 0 32 32" fill="none" xmlns="http://www.w3.org/2000/svg">
<path fill-rule="evenodd" clip-rule="evenodd" d="M23.3812 3.83808C21.8191 2.27598 19.2865 2.27598 17.7244 3.83808L15.8387 5.72369C15.7584 5.80407 15.6821 5.88701 15.61 5.97225C15.5379 5.88702 15.4617 5.8041 15.3814 5.72374L13.4957 3.83812C11.9336 2.27603 9.40099 2.27603 7.83889 3.83812C6.27679 5.40022 6.27679 7.93288 7.83889 9.49498L9.01042 10.6665H1.33398V18.6665H4.00065V29.3332H28.0007V18.6665H30.6673V10.6665H22.2096L23.3812 9.49493C24.9433 7.93283 24.9433 5.40017 23.3812 3.83808ZM19.61 9.49493L21.4956 7.60931C22.0163 7.08861 22.0163 6.24439 21.4956 5.72369C20.9749 5.203 20.1307 5.203 19.61 5.72369L17.7244 7.60931C17.2037 8.13001 17.2037 8.97423 17.7244 9.49493C18.2451 10.0156 19.0893 10.0156 19.61 9.49493ZM13.4957 7.60936L11.6101 5.72374C11.0894 5.20304 10.2452 5.20304 9.72451 5.72374C9.20381 6.24444 9.20381 7.08866 9.72451 7.60936L11.6101 9.49498C12.1308 10.0157 12.975 10.0157 13.4957 9.49498C14.0164 8.97428 14.0164 8.13006 13.4957 7.60936ZM28.0007 13.3332V15.9998H4.00065V13.3332H28.0007ZM17.223 18.6665H25.334V26.6665H17.223V18.6665ZM14.7785 18.6665V26.6665H6.66732V18.6665H14.7785Z" fill="white"/>
</svg>
