<svg width="32" height="32" viewBox="0 0 32 32" fill="none" xmlns="http://www.w3.org/2000/svg">
<path fill-rule="evenodd" clip-rule="evenodd" d="M28 11.6964L18.6944 2.39081C17.1323 0.828714 14.5997 0.828714 13.0376 2.39081L4 11.4284V30.7812H13.3333V22.7812C13.3333 21.3085 14.5272 20.1146 16 20.1146C17.4728 20.1146 18.6667 21.3085 18.6667 22.7812V30.7812H28V11.6964ZM14.9232 4.27643L6.66667 12.5329V28.1146H10.6667V22.7812C10.6667 19.8357 13.0545 17.4479 16 17.4479C18.9455 17.4479 21.3333 19.8357 21.3333 22.7812V28.1146H25.3333V12.801L16.8088 4.27643C16.2881 3.75573 15.4439 3.75573 14.9232 4.27643Z" fill="white"/>
</svg>
