<svg width="121" height="33" viewBox="0 0 121 33" fill="none" xmlns="http://www.w3.org/2000/svg">
<path d="M8.8047 2.17807C10.4065 2.17807 11.9135 2.47225 13.3256 3.0606C14.7377 3.64896 15.9444 4.45522 16.9455 5.4794C17.9572 6.49268 18.7528 7.71297 19.3324 9.14028C19.912 10.5676 20.2018 12.0929 20.2018 13.7164C20.2018 15.3398 19.912 16.8652 19.3324 18.2925C18.7528 19.7198 17.9572 20.9455 16.9455 21.9697C15.9444 22.9939 14.7377 23.8001 13.3256 24.3885C11.9135 24.9768 10.4065 25.271 8.8047 25.271H0V2.17807H8.8047ZM8.67824 20.3844C10.5014 20.3844 12.0189 19.747 13.2308 18.4722C14.4427 17.1975 15.0486 15.6122 15.0486 13.7164C15.0486 11.8206 14.4427 10.2407 13.2308 8.97684C12.0189 7.70207 10.5014 7.06469 8.67824 7.06469H5.02674V20.3844H8.67824Z" fill="#100E34"/>
<path d="M35.3137 8.20871H40.0401V25.271H35.3137V23.5713C33.9858 24.9768 32.3208 25.6796 30.3185 25.6796C28.0528 25.6796 26.1559 24.8243 24.6279 23.1137C23.1104 21.4031 22.3516 19.2785 22.3516 16.7399C22.3516 14.2012 23.1104 12.0766 24.6279 10.366C26.1559 8.65543 28.0528 7.80013 30.3185 7.80013C32.3208 7.80013 33.9858 8.50289 35.3137 9.90841V8.20871ZM31.267 20.9564C32.4262 20.9564 33.3904 20.5533 34.1597 19.747C34.929 18.9408 35.3137 17.9384 35.3137 16.7399C35.3137 15.5414 34.929 14.539 34.1597 13.7327C33.3904 12.9265 32.4262 12.5233 31.267 12.5233C30.1183 12.5233 29.1593 12.9265 28.39 13.7327C27.6313 14.539 27.2519 15.5414 27.2519 16.7399C27.2519 17.9384 27.6313 18.9408 28.39 19.747C29.1593 20.5533 30.1183 20.9564 31.267 20.9564Z" fill="#100E34"/>
<path d="M46.1417 6.01872C45.3197 6.01872 44.6295 5.73544 44.0709 5.16888C43.5124 4.59142 43.2331 3.87232 43.2331 3.01157C43.2331 2.16173 43.5124 1.45352 44.0709 0.886956C44.6295 0.320392 45.3197 0.0371094 46.1417 0.0371094C46.9848 0.0371094 47.6856 0.320392 48.2441 0.886956C48.8131 1.45352 49.0977 2.16173 49.0977 3.01157C49.0977 3.87232 48.8131 4.59142 48.2441 5.16888C47.6856 5.73544 46.9848 6.01872 46.1417 6.01872ZM43.7864 25.271V8.20871H48.5128V25.271H43.7864Z" fill="#100E34"/>
<path d="M52.2591 25.271V1.16479H56.9855V25.271H52.2591Z" fill="#100E34"/>
<path d="M71.8919 8.20871H77.1716L69.3153 28.0167C68.8516 29.2479 68.135 30.223 67.1655 30.9421C66.2065 31.6721 65.1527 32.0371 64.004 32.0371C63.2242 32.0371 62.418 31.8791 61.5855 31.5632C60.753 31.2472 60.0469 30.8223 59.4673 30.2884L61.2852 26.4804C61.8226 27.0361 62.4654 27.3139 63.2136 27.3139C64.004 27.3139 64.5994 26.889 64.9999 26.0392L65.4899 24.9768L58.8824 8.20871H64.2886L68.1139 19.0443L71.8919 8.20871Z" fill="#100E34"/>
<g filter="url(#filter0_d)">
<path d="M89.0687 15.7309H96.5084V16.9777C96.5084 18.5487 96.1732 19.9671 95.5028 21.2331C94.8395 22.499 93.9168 23.4904 92.7345 24.2073C91.5522 24.9165 90.2257 25.2711 88.7551 25.2711C87.6305 25.2711 86.5707 25.0576 85.5759 24.6305C84.581 24.1958 83.7303 23.6086 83.0239 22.8689C82.3174 22.1291 81.7587 21.2445 81.3477 20.215C80.944 19.1778 80.7422 18.0721 80.7422 16.8976C80.7422 15.7232 80.9476 14.6213 81.3586 13.5917C81.7695 12.5546 82.3318 11.6662 83.0455 10.9264C83.7592 10.1867 84.6171 9.6033 85.6191 9.17624C86.6212 8.74917 87.6881 8.53564 88.8199 8.53564C90.132 8.53564 91.3431 8.814 92.4533 9.3707C93.5707 9.91978 94.4791 10.6748 95.1783 11.6356L92.5831 13.8091C92.1505 13.2448 91.6135 12.8024 90.9719 12.4821C90.3302 12.1618 89.6346 12.0017 88.8848 12.0017C87.5656 12.0017 86.4626 12.4707 85.5759 13.4087C84.6964 14.3391 84.2566 15.5021 84.2566 16.8976C84.2566 18.2932 84.6964 19.46 85.5759 20.398C86.4554 21.3284 87.5512 21.7936 88.8632 21.7936C89.822 21.7936 90.6619 21.5343 91.3828 21.0157C92.1037 20.4972 92.5867 19.8146 92.8318 18.9681H89.0687V15.7309Z" fill="#4F48EC"/>
<path d="M110.16 24.6305C109.165 25.0576 108.101 25.2711 106.969 25.2711C105.838 25.2711 104.771 25.0576 103.769 24.6305C102.767 24.1958 101.909 23.6086 101.195 22.8689C100.481 22.1291 99.919 21.2445 99.5081 20.215C99.0972 19.1778 98.8917 18.0721 98.8917 16.8976C98.8917 15.7232 99.0972 14.6213 99.5081 13.5917C99.919 12.5546 100.481 11.6662 101.195 10.9264C101.909 10.1867 102.767 9.6033 103.769 9.17624C104.771 8.74917 105.838 8.53564 106.969 8.53564C108.476 8.53564 109.846 8.9017 111.079 9.6338C112.319 10.3583 113.292 11.3611 113.998 12.6423C114.705 13.9158 115.058 15.3343 115.058 16.8976C115.058 18.0721 114.849 19.1778 114.431 20.215C114.02 21.2445 113.454 22.1291 112.733 22.8689C112.019 23.6086 111.162 24.1958 110.16 24.6305ZM103.715 20.3866C104.587 21.3093 105.672 21.7707 106.969 21.7707C108.267 21.7707 109.352 21.3093 110.224 20.3866C111.097 19.4562 111.533 18.2932 111.533 16.8976C111.533 15.5021 111.097 14.3429 110.224 13.4202C109.352 12.4898 108.267 12.0246 106.969 12.0246C105.672 12.0246 104.587 12.4898 103.715 13.4202C102.842 14.3429 102.406 15.5021 102.406 16.8976C102.406 18.2932 102.842 19.4562 103.715 20.3866Z" fill="#4F48EC"/>
</g>
<defs>
<filter id="filter0_d" x="75.7422" y="3.53564" width="44.3159" height="26.7354" filterUnits="userSpaceOnUse" color-interpolation-filters="sRGB">
<feFlood flood-opacity="0" result="BackgroundImageFix"/>
<feColorMatrix in="SourceAlpha" type="matrix" values="0 0 0 0 0 0 0 0 0 0 0 0 0 0 0 0 0 0 127 0"/>
<feOffset/>
<feGaussianBlur stdDeviation="2.5"/>
<feColorMatrix type="matrix" values="0 0 0 0 0.309804 0 0 0 0 0.282353 0 0 0 0 0.92549 0 0 0 0.75 0"/>
<feBlend mode="normal" in2="BackgroundImageFix" result="effect1_dropShadow"/>
<feBlend mode="normal" in="SourceGraphic" in2="effect1_dropShadow" result="shape"/>
</filter>
</defs>
</svg>
