<svg width="32" height="23" viewBox="0 0 32 23" fill="none" xmlns="http://www.w3.org/2000/svg">
<path d="M32 20.6785C32 21.5524 31.2871 22.2609 30.4077 22.2609H17.5923C16.7129 22.2609 16 21.5524 16 20.6785C16 19.8045 16.7129 19.096 17.5923 19.096H30.4077C31.2871 19.096 32 19.8045 32 20.6785Z" fill="#100E34"/>
<path d="M32 11.1308C32 12.0048 31.2871 12.7132 30.4077 12.7132H1.59231C0.712903 12.7132 0 12.0048 0 11.1308C0 10.2569 0.7129 9.5484 1.59231 9.5484H30.4077C31.2871 9.5484 32 10.2569 32 11.1308Z" fill="#100E34"/>
<path d="M30.4077 3.16484C31.2871 3.16484 32 2.45636 32 1.58242C32 0.708472 31.2871 0 30.4077 0H11.1923C10.3129 0 9.6 0.708472 9.6 1.58242C9.6 2.45636 10.3129 3.16484 11.1923 3.16484H30.4077Z" fill="#100E34"/>
</svg>
