<svg width="24" height="24" viewBox="0 0 24 24" fill="none" xmlns="http://www.w3.org/2000/svg">
<g opacity="0.5">
<path fill-rule="evenodd" clip-rule="evenodd" d="M18.319 14.4324C20.7628 11.2939 20.542 6.75323 17.6569 3.86805C14.5327 0.743854 9.46734 0.743854 6.34315 3.86805C3.21895 6.99224 3.21895 12.0576 6.34315 15.1818C9.22833 18.0669 13.769 18.2877 16.9075 15.8439C16.921 15.8592 16.9351 15.8742 16.9497 15.8889L21.1924 20.1315C21.5829 20.522 22.2161 20.522 22.6066 20.1315C22.9971 19.741 22.9971 19.1078 22.6066 18.7173L18.364 14.4746C18.3493 14.46 18.3343 14.4459 18.319 14.4324ZM16.2426 5.28226C18.5858 7.62541 18.5858 11.4244 16.2426 13.7675C13.8995 16.1107 10.1005 16.1107 7.75736 13.7675C5.41421 11.4244 5.41421 7.62541 7.75736 5.28226C10.1005 2.93912 13.8995 2.93912 16.2426 5.28226Z" fill="#100E34"/>
</g>
</svg>
